<svg xmlns="http://www.w3.org/2000/svg" viewBox="0 0 512 512" style="height:32px;width:32px"><path d="M332.5 48.973c-22.95 38.178-19.08 73.917-9.81 105.417 9.27 31.59 23.04 59.85 23.04 85.95h.09c5.67-1.26 10.89-1.71 16.11-.81-.27-31.23-15.12-60.3-23.76-89.64-8.73-29.7-12.06-58.761 8.19-92.583zm-29.97 32.643L164.38 230.53c6.84 0 14.04.81 20.88 2.61 6.48-2.61 12.42-7.2 17.37-13.59 3.69-4.77 6.75-10.44 9-16.83l87.57-94.356c.09-8.712 1.08-17.64 3.33-26.748zM173.38 121.99c-11.07 0-21.33 5.67-29.25 15.84s-13.05 24.66-13.05 40.86 5.13 30.69 13.05 40.86c1.26 1.62 2.61 3.15 3.96 4.5l63.81-68.67c-2.25-6.66-5.49-12.6-9.27-17.55-7.92-10.17-18.18-15.84-29.25-15.84zm238.05 107.55v17.1h-30.6c5.31 4.41 8.1 10.17 9.18 16.2h21.42v17.1l57.6-25.2zm-202.68 17.1c1.26 1.8 2.25 3.87 2.97 6.12.72 2.16.45 4.59-.18 6.03-.63 1.71-1.62 2.79-2.88 4.05h118.35c.09-.18.09-.36.09-.54 1.71-7.38 2.25-11.34 7.2-15.66zm-52.47.45c-7.65 1.17-12.96 4.05-18.9 6.03l-67.032-.9c-20.709-.09-28.503 30.96-7.137 31.86 14.526.27 24.921-1.8 35.595-3.6s21.744-3.42 35.604-1.17c8.37 1.98 16.29 6.66 22.77 10.8 7.83 1.98 15.75 1.8 21.42.18 5.13-1.44 7.83-3.69 8.91-5.49-4.5-6.84-11.07-12.78-8.64-20.07 2.7-5.76 8.55-8.19 13.5-10.89.09 0 .18-.09.27-.09-2.34-1.71-5.76-3.42-10.17-4.59-9.18-2.07-17.55-2.88-26.19-2.07zm188.1 12.33c.81-.9-.72 1.53-1.17 5.13-.54 3.6-.72 8.28-.36 12.96 1.17 6.21.63 14.58 5.58 19.26 5.85 3.69 21.78 4.59 24.48-1.08 1.17-11.07 3.69-21.15.72-31.68-.72-2.7-1.71-3.87-1.98-4.05-7.74-4.14-20.43-7.92-27.27-.54zm-17.73 18.99c-45.9.81-79.11.18-124.02.54 5.13 13.77-8.37 23.67-19.71 26.91-.09 0-.18 0-.27.09l117.72 153.9c-1.26-8.82-1.35-17.37-.81-25.74l-75.78-99.09c.63-12.87 0-22.95-.81-35.37 36.54 2.43 74.43 1.35 107.64-1.53-2.25-6.3-3.51-13.5-3.96-19.44zM127.21 294.7c-11.25 37.53-2.43 83.07-6.57 124.2v-.18l-4.14 51.48h108.99l-15.03-56.97c3.15-11.61 6.12-23.76 8.01-33.84l-54.99-71.91c-15.93-.27-23.04-11.25-36.27-12.78zm218.52 19.08c-.54 25.74-13.95 53.46-23.04 84.51-6.48 22.05-10.35 46.26-4.14 71.91h16.56c-6.93-23.58-3.42-45.36 3.06-67.41 8.37-28.35 22.5-56.52 23.67-86.49-5.4.27-10.98-.45-16.11-2.52z"/></svg>