<svg xmlns="http://www.w3.org/2000/svg" viewBox="0 0 512 512" style="height:32px;width:32px"><path d="M343.075 61.123L313.29 136.16l100.04 100.152 52.399-52.452L343.075 61.123zm-144.31 4.696C110.34 126.096 48.582 210.941 46.242 325.835 102.267 217.999 192.454 123.252 275.94 83.06l-77.175-17.242zm-85.19 13.921l-26.607 26.608c6.549 6.264 13.077 12.504 19.632 18.759 7.998-9.351 16.533-18.315 25.482-26.917l-18.507-18.45zm318.432 0L408.719 103l25.846 25.875a32021.09 32021.09 0 0 0 24.048-22.585l-26.606-26.55zm-237.544 80.775a571.376 571.376 0 0 0-25.257 24.357c22.737 21.717 45.473 43.49 68.119 65.475l23.57-23.513-66.432-66.32zm137.981 18.648L86.8 424.44l26.382 26.298c75.132-86.517 158.181-167.848 242.83-247.978l-23.569-23.598zm-25.425 93.74a4955.939 4955.939 0 0 0-23.373 22.782c50.307 49.842 100.05 101.118 148.642 155.194l26.494-26.437-151.763-151.54z"/></svg>