<svg xmlns="http://www.w3.org/2000/svg" viewBox="0 0 512 512" style="height:32px;width:32px"><path d="M347.508 43.948c-2.35.01-4.707.095-7.07.261-56.983 3.995-118.017 52.206-127.905 117.228L470.2 172.293V106.29c-7.281-7.012-14.774-13.725-22.458-19.959-31.13-25.26-64.975-42.51-100.233-42.384zM138.595 62.331c-32.568.115-66.426 13.421-96.795 41.411v73.17l154.896-16.933-.326-.049c3.484-24.019 12.894-45.86 26.245-64.567-24.275-21.717-53.582-33.138-84.02-33.03zm99.237 116.562c-22.041-.232-98.883 10.923-98.642 24.37.414 22.996 93.99 46.398 85.253 47.717-88.545 13.363-137.672 13.504-167.037 40.3-35.023 31.956 193.485 72.828 165.98 80.718-51.484 14.771-97.038 32.63-98.102 79.573-.153 6.768.72 12.946 2.435 18.63h49.45c-13.88-18.572-21.645-36.598-13.14-41.32 9.372 13.595 20.243 28.012 32.557 41.32h57.857c-17.527-8.92-46.559-26.467-45.535-44.482 1.44-25.353 59.733-42.982 62.895-42.982 0 0-43.907 23.746-44.88 44.88-.69 15.011 20.085 33.286 32.12 42.584h46.78c-14.81-11.093-23.831-22.428-18.384-28.697 13.986 9.96 29.803 20.195 46.643 28.697h96.045c-51.066-14.39-92.414-29.403-103.702-47.814-9.176-14.967 65.126-25.053 54.367-71.012-5.21-22.264-52.416-36.985-182.9-56.364-22.83-3.39 120.923-17.51 116.837-51.399-2.385-19.782-92.96-24.165-103.122-33.24-4.272-3.813 5.276-26.603 26.223-31.476zM107.882 302.85c30.039-.13 75.947 20.182 110.52 33.073l-1.61 10.503c-25.564-9.546-93.515-33.718-114.698-43.27a56.485 56.485 0 0 1 5.788-.306zm243.211 48.423c.093-.005.09.07-.013.228 3.51 10.965-19.339 39.645-55.627 38.558 12.738-6.435 53.76-38.704 55.64-38.787z"/></svg>