<svg xmlns="http://www.w3.org/2000/svg" viewBox="0 0 512 512" style="height:32px;width:32px"><path d="M160.51 50.08L56.425 76.666v69.084l111.195-35.685 42.03-40.203-49.14-19.782zm119.52 51.3c-6.66.162-9.09 1.692.81 6.417 56.97 27.243 142.29 103.923 96.93 113.013-143.19 28.89-234.81 67.86-308.511 156.51-20.781 25.02-27.459 93.6-27.459 93.6h389.34s-125.1-18.99-133.02-68.13c-13.41-82.98 175.05-92.43 176.85-179.91.81-38.88-79.47-112.491-165.96-119.268-5.04-.396-20.43-2.439-28.98-2.232zm-147.15 36.81l-29.421 9.45v109.98l32.391-9-2.97-110.43z"/></svg>