<svg xmlns="http://www.w3.org/2000/svg" viewBox="0 0 512 512" style="height:32px;width:32px"><path d="M446.654 57.863c-47.887 3.166-91.155 7.282-125.226 45.162 8.882 26.607 23.551 59.296 41.952 85.71 18.454 26.493 40.282 45.532 61.749 47.968 31.738-29.751 48.329-101.339 21.525-178.84zM196.42 67.018a63.842 48.987 66.039 0 0-14.388 3.274 63.842 48.987 66.039 0 0-18.838 78.235 63.842 48.987 66.039 0 0 46.458 40.9c2.153 51.755-17.485 39.494-63.48 66.245l14.298 28.52c32.01-12.357 46.66-17.732 62.343-39.885 29.328 84.528-1.686 141.513-21.319 222.37l30.34 4.425c21.328-51.522 49.603-110.12 56.194-163.28 44.044 46.02 69.749 103.177 103.185 152.229l32.238-13.275c-41.229-72.652-59.07-115.534-135.532-235.971 24.138-.175 44.844-5.933 63.615-13.88-6.332-9.095-12.208-18.794-17.576-28.697-25.4 10.874-53.125 15.297-81.126.769a63.842 48.987 66.039 0 0-.106-60.26 63.842 48.987 66.039 0 0-56.306-41.719zm-156.897 37.16l2.958 30.681 47.34 96.993 19.412-9.473-47.145-96.593-22.565-21.609zm87.36 125.61l-42.081 20.54 2.823 16.646 50.644-24.718-11.387-12.468zm2.086 33.03l-19.412 9.476 15.002 30.735 19.41-9.475-15-30.735z"/></svg>