<svg xmlns="http://www.w3.org/2000/svg" viewBox="0 0 512 512" style="height:32px;width:32px"><path d="M283.927 43.6c-35.22.432-71.757 13.767-105.3 41.344h72.423v38.87c47.484-26.776 103.133-28.43 147.544.026l-16.369 8.748 58.22 45.648-3.376-74.982-23.766 12.713C381.99 69.513 336.134 44.18 287.416 43.6c-1.159-.013-2.324-.014-3.487 0zm-241.2 58.163v191.474h191.504V101.763H42.729zm45.254 23.427h122.821v125.045h-16.846V142.01H87.982v-16.82zm3.01 34.313l81.084 82.66-12.01 11.785-81.084-82.66 12.01-11.785zm185.99 55.575v191.504h191.475V215.08H276.98zm45.225 23.457h122.822V363.55H428.21V255.352H322.209l-.002-16.817zm3.01 34.285l81.112 82.688-12.008 11.755-81.112-82.66 12.008-11.782zM74.537 330.11l3.375 74.981 20.981-11.223c54.835 79.774 152.991 95.837 233.663 29.533h-72.395v-38.87c-46.872 26.443-101.7 28.39-145.827 1.07l18.392-9.844-58.19-45.646z"/></svg>